<?xml version="1.0" encoding="utf-8"?>
<!-- Generator: Adobe Illustrator 17.0.2, SVG Export Plug-In . SVG Version: 6.00 Build 0)  -->
<!DOCTYPE svg PUBLIC "-//W3C//DTD SVG 1.1//EN" "http://www.w3.org/Graphics/SVG/1.1/DTD/svg11.dtd">
<svg version="1.1" id="Layer_1" xmlns="http://www.w3.org/2000/svg" xmlns:xlink="http://www.w3.org/1999/xlink" x="0px" y="0px"
	 width="564.086px" height="103.476px" viewBox="0.45 143.655 564.086 103.476"
	 enable-background="new 0.45 143.655 564.086 103.476" xml:space="preserve">
<g>
	<path fill="#333333" stroke="#333333" stroke-width="0.6299" stroke-miterlimit="10" d="M31.026,205.353
		c-3.483,0-6.304-2-6.304-4.469c0-2.463,2.821-4.468,6.304-4.468c2.038,0,3.85,0.691,4.999,1.753c0,0,4.733-0.454,5.651,2.715
		c0.836,2.884-1.681-1.604-4.733,1.536C36.059,204.131,33.746,205.353,31.026,205.353z"/>
	<path fill="#333333" stroke="#333333" stroke-width="0.6299" stroke-miterlimit="10" d="M31.026,237.367
		c-3.483,0-6.304,1.999-6.304,4.468c0,2.463,2.821,4.468,6.304,4.468c2.038,0,3.85-0.691,4.999-1.753c0,0,4.733,0.454,5.651-2.715
		c0.836-2.884-1.681,1.604-4.733-1.536C36.059,238.589,33.746,237.367,31.026,237.367z"/>
	<path fill="#333333" stroke="#333333" stroke-width="0.6299" stroke-miterlimit="10" d="M18.396,239.248
		c-9.737,0-17.631-7.894-17.631-17.631c0-9.737,7.894-17.631,17.631-17.631c6.004,0,7.099,3.537,10.283,8.122
		c1.98,2.85,7.348,5.778,7.348,9.509c0,3.855-4.562,5.076-6.66,7.978C26.164,234.024,24.279,239.248,18.396,239.248z"/>
	<path fill="#333333" stroke="#333333" stroke-width="0.6299" stroke-miterlimit="10" d="M42.331,218.263
		c-3.483,0-6.304-2-6.304-4.469c0-2.463,2.821-4.468,6.304-4.468c2.038,0,3.85,0.691,5,1.753c0,0,4.733-0.454,5.652,2.715
		c0.836,2.883-1.681-1.604-4.734,1.536C47.364,217.04,45.05,218.263,42.331,218.263z"/>
	<path fill="#333333" stroke="#333333" stroke-width="0.6299" stroke-miterlimit="10" d="M42.331,224.418
		c-3.483,0-6.304,2-6.304,4.469c0,2.463,2.821,4.468,6.304,4.468c2.038,0,3.85-0.691,5-1.753c0,0,4.733,0.454,5.652-2.715
		c0.836-2.884-1.681,1.604-4.734-1.536C47.364,225.64,45.05,224.418,42.331,224.418z"/>
</g>
<g>
	<path fill="#333333" stroke="#333333" stroke-width="0.6299" stroke-miterlimit="10" d="M132.723,153.36
		c-3.483,0-6.304-2-6.304-4.469c0-2.463,2.821-4.468,6.304-4.468c2.038,0,3.85,0.691,4.999,1.753c0,0,4.734-0.454,5.652,2.715
		c0.836,2.883-1.681-1.604-4.734,1.536C137.756,152.138,135.442,153.36,132.723,153.36z"/>
	<path fill="#333333" stroke="#333333" stroke-width="0.6299" stroke-miterlimit="10" d="M132.723,185.373
		c-3.483,0-6.304,1.999-6.304,4.468c0,2.463,2.821,4.468,6.304,4.468c2.038,0,3.85-0.691,4.999-1.753c0,0,4.734,0.454,5.652-2.715
		c0.836-2.883-1.681,1.604-4.734-1.536C137.756,186.596,135.442,185.373,132.723,185.373z"/>
	<path fill="#333333" stroke="#333333" stroke-width="0.6299" stroke-miterlimit="10" d="M120.093,187.255
		c-9.737,0-17.631-7.894-17.631-17.631s7.894-17.631,17.631-17.631c6.004,0,7.099,3.537,10.283,8.122
		c1.98,2.85,7.348,5.778,7.348,9.509c0,3.855-4.562,5.076-6.66,7.978C127.861,182.031,125.976,187.255,120.093,187.255z"/>
	<path fill="#333333" stroke="#333333" stroke-width="0.6299" stroke-miterlimit="10" d="M144.028,166.269
		c-3.483,0-6.304-2-6.304-4.469c0-2.463,2.821-4.468,6.304-4.468c2.038,0,3.85,0.691,4.999,1.753c0,0,4.734-0.454,5.652,2.715
		c0.836,2.884-1.681-1.604-4.734,1.536C149.061,165.047,146.748,166.269,144.028,166.269z"/>
	<path fill="#333333" stroke="#333333" stroke-width="0.6299" stroke-miterlimit="10" d="M144.028,172.425
		c-3.483,0-6.304,2-6.304,4.469c0,2.463,2.821,4.468,6.304,4.468c2.038,0,3.85-0.691,4.999-1.753c0,0,4.734,0.454,5.652-2.715
		c0.836-2.884-1.681,1.604-4.734-1.536C149.061,173.647,146.748,172.425,144.028,172.425z"/>
</g>
<g>
	<path fill="#333333" stroke="#333333" stroke-width="0.6299" stroke-miterlimit="10" d="M235.285,205.61
		c-3.483,0-6.304-2-6.304-4.469c0-2.463,2.821-4.468,6.304-4.468c2.038,0,3.85,0.691,4.999,1.753c0,0,4.733-0.454,5.651,2.715
		c0.836,2.884-1.681-1.604-4.733,1.536C240.318,204.388,238.004,205.61,235.285,205.61z"/>
	<path fill="#333333" stroke="#333333" stroke-width="0.6299" stroke-miterlimit="10" d="M235.285,237.624
		c-3.483,0-6.304,1.999-6.304,4.468c0,2.463,2.821,4.468,6.304,4.468c2.038,0,3.85-0.691,4.999-1.753c0,0,4.733,0.454,5.651-2.715
		c0.836-2.884-1.681,1.604-4.733-1.536C240.318,238.846,238.004,237.624,235.285,237.624z"/>
	<path fill="#333333" stroke="#333333" stroke-width="0.6299" stroke-miterlimit="10" d="M222.654,239.505
		c-9.737,0-17.631-7.894-17.631-17.631c0-9.737,7.894-17.631,17.631-17.631c6.004,0,7.099,3.537,10.283,8.122
		c1.98,2.85,7.348,5.778,7.348,9.509c0,3.855-4.562,5.076-6.66,7.978C230.422,234.281,228.537,239.505,222.654,239.505z"/>
	<path fill="#333333" stroke="#333333" stroke-width="0.6299" stroke-miterlimit="10" d="M246.589,218.52
		c-3.483,0-6.304-2-6.304-4.469c0-2.463,2.821-4.468,6.304-4.468c2.038,0,3.85,0.691,5,1.753c0,0,4.733-0.454,5.651,2.715
		c0.836,2.883-1.681-1.604-4.733,1.536C251.622,217.297,249.309,218.52,246.589,218.52z"/>
	<path fill="#333333" stroke="#333333" stroke-width="0.6299" stroke-miterlimit="10" d="M246.589,224.675
		c-3.483,0-6.304,2-6.304,4.469c0,2.463,2.821,4.468,6.304,4.468c2.038,0,3.85-0.691,5-1.753c0,0,4.733,0.454,5.651-2.715
		c0.836-2.884-1.681,1.604-4.733-1.536C251.622,225.897,249.309,224.675,246.589,224.675z"/>
</g>
<g>
	<path fill="#333333" stroke="#333333" stroke-width="0.6299" stroke-miterlimit="10" d="M337.66,152.907
		c-3.483,0-6.304-2-6.304-4.469c0-2.463,2.821-4.468,6.304-4.468c2.038,0,3.85,0.691,4.999,1.753c0,0,4.734-0.454,5.652,2.715
		c0.836,2.884-1.681-1.604-4.734,1.536C342.693,151.685,340.38,152.907,337.66,152.907z"/>
	<path fill="#333333" stroke="#333333" stroke-width="0.6299" stroke-miterlimit="10" d="M337.66,184.92
		c-3.483,0-6.304,1.999-6.304,4.468c0,2.463,2.821,4.468,6.304,4.468c2.038,0,3.85-0.691,4.999-1.753c0,0,4.734,0.454,5.652-2.715
		c0.836-2.883-1.681,1.604-4.734-1.536C342.693,186.143,340.38,184.92,337.66,184.92z"/>
	<path fill="#333333" stroke="#333333" stroke-width="0.6299" stroke-miterlimit="10" d="M325.03,186.802
		c-9.737,0-17.631-7.894-17.631-17.631c0-9.737,7.894-17.631,17.631-17.631c6.004,0,7.099,3.537,10.283,8.122
		c1.98,2.85,7.348,5.778,7.348,9.509c0,3.855-4.562,5.076-6.66,7.978C332.799,181.578,330.913,186.802,325.03,186.802z"/>
	<path fill="#333333" stroke="#333333" stroke-width="0.6299" stroke-miterlimit="10" d="M348.965,165.816
		c-3.483,0-6.304-2-6.304-4.469c0-2.463,2.821-4.468,6.304-4.468c2.038,0,3.85,0.691,4.999,1.753c0,0,4.734-0.454,5.652,2.715
		c0.836,2.883-1.681-1.604-4.734,1.536C353.999,164.593,351.685,165.816,348.965,165.816z"/>
	<path fill="#333333" stroke="#333333" stroke-width="0.6299" stroke-miterlimit="10" d="M348.965,171.972
		c-3.483,0-6.304,2-6.304,4.469c0,2.463,2.821,4.468,6.304,4.468c2.038,0,3.85-0.691,4.999-1.753c0,0,4.734,0.454,5.652-2.715
		c0.836-2.883-1.681,1.604-4.734-1.536C353.999,173.194,351.685,171.972,348.965,171.972z"/>
</g>
<g>
	<path fill="#333333" stroke="#333333" stroke-width="0.6299" stroke-miterlimit="10" d="M439.82,205.867
		c-3.483,0-6.304-2-6.304-4.469c0-2.463,2.821-4.468,6.304-4.468c2.038,0,3.85,0.691,4.999,1.753c0,0,4.734-0.454,5.652,2.715
		c0.836,2.884-1.681-1.604-4.734,1.536C444.854,204.645,442.54,205.867,439.82,205.867z"/>
	<path fill="#333333" stroke="#333333" stroke-width="0.6299" stroke-miterlimit="10" d="M439.82,237.881
		c-3.483,0-6.304,1.999-6.304,4.468c0,2.463,2.821,4.468,6.304,4.468c2.038,0,3.85-0.691,4.999-1.753c0,0,4.734,0.454,5.652-2.715
		c0.836-2.884-1.681,1.604-4.734-1.536C444.854,239.103,442.54,237.881,439.82,237.881z"/>
	<path fill="#333333" stroke="#333333" stroke-width="0.6299" stroke-miterlimit="10" d="M427.19,239.762
		c-9.737,0-17.631-7.894-17.631-17.631c0-9.737,7.894-17.631,17.631-17.631c6.004,0,7.099,3.537,10.283,8.122
		c1.98,2.85,7.348,5.778,7.348,9.509c0,3.855-4.562,5.076-6.66,7.978C434.959,234.538,433.073,239.762,427.19,239.762z"/>
	<path fill="#333333" stroke="#333333" stroke-width="0.6299" stroke-miterlimit="10" d="M451.125,218.776
		c-3.483,0-6.304-2-6.304-4.469c0-2.463,2.821-4.468,6.304-4.468c2.038,0,3.85,0.691,5,1.753c0,0,4.733-0.454,5.651,2.715
		c0.836,2.883-1.681-1.604-4.734,1.536C456.159,217.553,453.845,218.776,451.125,218.776z"/>
	<path fill="#333333" stroke="#333333" stroke-width="0.6299" stroke-miterlimit="10" d="M451.125,224.932
		c-3.483,0-6.304,2-6.304,4.469c0,2.463,2.821,4.468,6.304,4.468c2.038,0,3.85-0.691,5-1.753c0,0,4.733,0.454,5.651-2.715
		c0.836-2.884-1.681,1.604-4.734-1.536C456.159,226.154,453.845,224.932,451.125,224.932z"/>
</g>
<g>
	<path fill="#333333" stroke="#333333" stroke-width="0.6299" stroke-miterlimit="10" d="M542.104,152.907
		c-3.483,0-6.304-2-6.304-4.469c0-2.463,2.821-4.468,6.304-4.468c2.038,0,3.85,0.691,4.999,1.753c0,0,4.734-0.454,5.651,2.715
		c0.836,2.884-1.681-1.604-4.734,1.536C547.137,151.685,544.824,152.907,542.104,152.907z"/>
	<path fill="#333333" stroke="#333333" stroke-width="0.6299" stroke-miterlimit="10" d="M542.104,184.92
		c-3.483,0-6.304,1.999-6.304,4.468c0,2.463,2.821,4.468,6.304,4.468c2.038,0,3.85-0.691,4.999-1.753c0,0,4.734,0.454,5.651-2.715
		c0.836-2.883-1.681,1.604-4.734-1.536C547.137,186.143,544.824,184.92,542.104,184.92z"/>
	<path fill="#333333" stroke="#333333" stroke-width="0.6299" stroke-miterlimit="10" d="M529.474,186.802
		c-9.737,0-17.631-7.894-17.631-17.631c0-9.737,7.894-17.631,17.631-17.631c6.004,0,7.099,3.537,10.283,8.122
		c1.98,2.85,7.348,5.778,7.348,9.509c0,3.855-4.562,5.076-6.66,7.978C537.242,181.578,535.357,186.802,529.474,186.802z"/>
	<path fill="#333333" stroke="#333333" stroke-width="0.6299" stroke-miterlimit="10" d="M553.409,165.816
		c-3.483,0-6.304-2-6.304-4.469c0-2.463,2.821-4.468,6.304-4.468c2.038,0,3.85,0.691,4.999,1.753c0,0,4.734-0.454,5.651,2.715
		c0.836,2.883-1.681-1.604-4.733,1.536C558.443,164.593,556.128,165.816,553.409,165.816z"/>
	<path fill="#333333" stroke="#333333" stroke-width="0.6299" stroke-miterlimit="10" d="M553.409,171.972
		c-3.483,0-6.304,2-6.304,4.469c0,2.463,2.821,4.468,6.304,4.468c2.038,0,3.85-0.691,4.999-1.753c0,0,4.734,0.454,5.651-2.715
		c0.836-2.883-1.681,1.604-4.733-1.536C558.443,173.194,556.128,171.972,553.409,171.972z"/>
</g>
</svg>
